<?xml version="1.0" encoding="UTF-8"?>
<svg id="Layer_1" xmlns="http://www.w3.org/2000/svg" version="1.1" viewBox="0 0 1000 300">
  <!-- Generator: Adobe Illustrator 30.1.0, SVG Export Plug-In . SVG Version: 2.1.1 Build 136)  -->
  <defs>
    <style>
      .st0 {
        fill-rule: evenodd;
      }

      .st0, .st1 {
        fill: #fff;
      }
    </style>
  </defs>
  <path class="st0" d="M493.8,67c-3.1-.8-6.4-.8-9.6,0l-44.4,11.1c-8.8,2.2-14.9,10.1-14.9,19.2v35.7c0,29,15.8,55.7,41.3,69.6l20.4,11.1c1.5.8,3.2.8,4.7,0l20.4-11.1c25.5-13.8,41.3-40.5,41.3-69.6v-35.7c0-9.1-6.1-17-14.9-19.2l-44.4-11.1ZM482.9,120c-1.7-2.1-4.9-2.4-6.9-.6l-10.2,8.5c-4.7,3.9-4.7,11.2,0,15.1l10.2,8.5c2.1,1.7,5.2,1.5,6.9-.6,1.7-2.1,1.5-5.2-.6-6.9l-10.2-8.5,10.2-8.5c2.1-1.7,2.4-4.9.6-6.9ZM502,119.3c-2.1-1.7-5.2-1.5-6.9.6-1.7,2.1-1.5,5.2.6,6.9l10.2,8.5-10.2,8.5c-2.1,1.7-2.4,4.9-.6,6.9,1.7,2.1,4.9,2.4,6.9.6l10.2-8.5c4.7-3.9,4.7-11.2,0-15.1l-10.2-8.5Z"/>
  <g>
    <path class="st1" d="M98.9,146.6c-1.8,24.5-23.3,31.8-49.4,31.8C22.3,178.4-.1,170.5,0,143v-5.3c-.1-27.4,22.3-35.3,49.5-35.4,26.1,0,47.6,7.4,49.4,31.8h-29c-2.6-7.1-10.7-8.8-20.4-8.8-11.6.2-21.4,2.2-21.2,14.1v1.8c-.2,11.8,9.7,14,21.2,14.1,9.7,0,17.8-1.7,20.4-8.8h29Z"/>
    <path class="st1" d="M204.9,137.7v5.3c.1,27.4-22.2,35.3-49.5,35.4-27.3,0-49.7-8-49.5-35.4v-5.3c-.1-27.5,22.2-35.3,49.5-35.4,27.3,0,49.5,8,49.5,35.4ZM176.6,139.5c.2-11.8-9.7-14-21.2-14.1-11.6.2-21.4,2.3-21.3,14.1v1.8c-.2,11.9,9.7,14,21.3,14.2,11.5-.2,21.4-2.3,21.2-14.2v-1.8Z"/>
    <path class="st1" d="M277.8,104.2c19.9-.3,34.7,16.5,34.5,36.3.2,19.7-14.6,36.5-34.5,36.3h-64.5v-72.5h64.5ZM272.6,127.2h-31v26.6h31c7.3,0,11.5-6,11.5-13.3s-4.2-13.3-11.5-13.3Z"/>
    <path class="st1" d="M320.8,104.2h84.9v18.6h-56.6v9.3h56.6v16.8h-56.6v9.3h56.6v18.6h-84.9v-72.5Z"/>
    <path class="st1" d="M667,157.3c.2,12.7-10.5,19.5-23,19.5h-74.3v-72.5h69c12.6,0,23.2,6.8,23,19.4,0,7-3.2,12.3-8.4,15.6,8.2,2.6,13.7,8.9,13.7,18ZM598,121.4v9.8h32.8c2.4,0,4.4-2.5,4.4-4.9s-2-4.9-4.4-4.9h-32.8ZM636.1,159.5c2.4,0,4.4-2.4,4.4-4.9s-2-4.9-4.4-4.9h-38v9.7h38Z"/>
    <path class="st1" d="M705.4,104.2h33.6l38.9,72.5h-31.8l-5.7-12.4h-36.3l-5.7,12.4h-31.8l38.9-72.5ZM712.2,146.6h19.9l-9.9-21.4-10,21.4Z"/>
    <path class="st1" d="M850.8,104.1h28.3v72.5h-31.8l-39-44.3v44.3h-28.3v-72.5h38.9l31.8,38.4v-38.4Z"/>
    <path class="st1" d="M923.9,151.9v24.8h-28.3v-72.5h28.3v24.8h12.4l26.6-24.8h37.1l-37.6,36.3,37.6,36.3h-37.1l-26.6-24.8h-12.4Z"/>
  </g>
</svg>