<svg fill="none" height="64" viewBox="0 0 64 64" width="64" xmlns="http://www.w3.org/2000/svg"><path clip-rule="evenodd" d="m33.9418 2.23983c-1.2749-.31977-2.6087-.31977-3.8836 0l-18 4.51489c-3.56457.89409-6.0582 4.10468-6.0582 7.77998v14.4948c0 11.7769 6.4296 22.6111 16.7565 28.2233l8.2885 4.5045c.5955.3236 1.3145.3236 1.91 0l8.2885-4.5045c10.3269-5.6122 16.7565-16.4464 16.7565-28.2233v-14.4948c0-3.6753-2.4936-6.88589-6.0582-7.77998zm-4.4054 21.47977c-.7071-.8485-1.9682-.9632-2.8168-.256l-4.1562 3.4635c-1.9191 1.5992-1.9191 4.5466 0 6.1458l4.1562 3.4635c.8486.7072 2.1097.5925 2.8168-.256.7072-.8486.5925-2.1097-.256-2.8168l-4.1563-3.4636 4.1563-3.4636c.8485-.7071.9632-1.9682.256-2.8168zm7.744-.256c-.8486-.7072-2.1097-.5925-2.8168.256-.7072.8486-.5925 2.1097.256 2.8168l4.1563 3.4636-4.1563 3.4636c-.8485.7071-.9632 1.9682-.256 2.8168.7071.8485 1.9682.9632 2.8168.256l4.1562-3.4635c1.9191-1.5992 1.9191-4.5466 0-6.1458z" fill="rgb(0,0,0)" fill-rule="evenodd"/></svg>